<svg width="24" height="24" viewBox="0 0 24 24" fill="none" xmlns="http://www.w3.org/2000/svg">
<path d="M21.8184 20.9417L3.05838 2.18174C2.88107 2.00428 2.6145 1.95118 2.38272 2.04731C2.15109 2.14329 2.00003 2.36927 2.00003 2.62012V21.38C2.00003 21.7224 2.27759 22 2.61999 22H21.3801C21.6308 22 21.8569 21.8489 21.9527 21.6173C22.0487 21.3857 21.9958 21.119 21.8184 20.9417ZM15.2683 20.7601V19.7257C15.2683 19.3833 14.9907 19.1057 14.6483 19.1057C14.3061 19.1057 14.0284 19.3833 14.0284 19.7257V20.7601H12.5884V20.1012C12.5884 19.7589 12.3108 19.4812 11.9684 19.4812C11.626 19.4812 11.3485 19.7589 11.3485 20.1012V20.7601H9.90835V19.7257C9.90835 19.3833 9.6308 19.1057 9.28839 19.1057C8.94598 19.1057 8.66842 19.3833 8.66842 19.7257V20.7601H7.22845V20.1012C7.22845 19.7589 6.95074 19.4812 6.60849 19.4812C6.26608 19.4812 5.98837 19.7589 5.98837 20.1012V20.7601H3.24011V18.0117H3.89883C4.24124 18.0117 4.5188 17.7341 4.5188 17.3917C4.5188 17.0493 4.24124 16.7717 3.89883 16.7717H3.24011V15.3316H4.27435C4.61676 15.3316 4.89447 15.054 4.89447 14.7116C4.89447 14.3692 4.61676 14.0917 4.27435 14.0917H3.24011V12.6517H3.89883C4.24124 12.6517 4.5188 12.3741 4.5188 12.0317C4.5188 11.6893 4.24124 11.4118 3.89883 11.4118H3.24011V9.97165H4.27435C4.61676 9.97165 4.89447 9.6941 4.89447 9.35169C4.89447 9.00928 4.61676 8.73173 4.27435 8.73173H3.24011V4.11686L19.8832 20.7601H15.2683Z" fill="black"/>
<path d="M6.58561 18.0117H12.2137C12.4644 18.0117 12.6905 17.8606 12.7863 17.629C12.8823 17.3972 12.8294 17.1307 12.6519 16.9533L7.024 11.3253C6.84669 11.148 6.57996 11.095 6.34834 11.191C6.11671 11.287 5.96564 11.513 5.96564 11.7637V17.3917C5.96564 17.7341 6.2432 18.0117 6.58561 18.0117ZM7.20558 13.2606L10.7168 16.7718H7.20558V13.2606Z" fill="black"/>
</svg>
